<svg xmlns="http://www.w3.org/2000/svg" viewBox="0 0 40 40" preserveAspectRatio="xMidYMid meet">

<g transform="translate(0.000000,48.000000) scale(0.100000,-0.100000)"
fill="#000000" stroke="none">
<path d="M95 321 c-3 -6 7 -9 21 -8 36 3 43 -21 7 -25 -22 -2 -28 -8 -28 -28
0 -22 5 -25 38 -27 36 -1 37 0 37 32 0 51 -9 65 -40 65 -16 0 -31 -4 -35 -9z
m51 -52 c8 -14 -18 -31 -30 -19 -9 9 0 30 14 30 5 0 12 -5 16 -11z"/>
<path d="M184 305 c11 -44 25 -75 35 -75 5 0 12 17 16 38 l8 37 10 -37 c11
-44 24 -48 37 -13 18 47 22 75 12 75 -5 0 -13 -17 -17 -37 l-8 -38 -11 34
c-17 47 -30 49 -42 4 l-10 -38 -8 38 c-5 20 -13 37 -18 37 -6 0 -7 -11 -4 -25z"/>
<path d="M323 314 c-6 -16 13 -38 40 -47 6 -2 7 -9 3 -15 -4 -7 -16 -10 -27
-7 -11 4 -19 2 -19 -5 0 -7 13 -10 33 -8 42 4 50 39 12 56 -29 13 -24 37 6 29
11 -3 19 -1 19 4 0 17 -60 10 -67 -7z"/>
<path d="M355 201 c-3 -7 3 -11 16 -11 17 0 20 -4 16 -22 -6 -22 -6 -22 9 -3
8 10 13 24 11 30 -5 14 -44 18 -52 6z"/>
<path d="M101 177 c73 -52 174 -58 249 -16 26 15 29 18 10 13 -14 -3 -59 -8
-100 -11 -71 -5 -85 -2 -175 32 -11 4 -4 -4 16 -18z"/>
</g>
</svg>
