<svg xmlns="http://www.w3.org/2000/svg" viewBox="7 7 36 36">
  <path d="M9.5 15.9c-.3.6.7.9 2.1.8 3.6-.3 4.3 2.1.7 2.5-2.2.2-2.8.8-2.8 2.8 0 2.2.5 2.5 3.8 2.7 3.6.1 3.7 0 3.7-3.2 0-5.1-.9-6.5-4-6.5-1.6 0-3.1.4-3.5.9zm5.1 5.2c.8 1.4-1.8 3.1-3 1.9-.9-.9 0-3 1.4-3 .5 0 1.2.5 1.6 1.1zM18.4 17.5c1.1 4.4 2.5 7.5 3.5 7.5.5 0 1.2-1.7 1.6-3.8l.8-3.7 1 3.7c1.1 4.4 2.4 4.8 3.7 1.3 1.8-4.7 2.2-7.5 1.2-7.5-.5 0-1.3 1.7-1.7 3.7l-.8 3.8-1.1-3.4c-1.7-4.7-3-4.9-4.2-.4l-1 3.8-.8-3.8c-.5-2-1.3-3.7-1.8-3.7-.6 0-.7 1.1-.4 2.5zM32.3 16.6c-.6 1.6 1.3 3.8 4 4.7.6.2.7.9.3 1.5-.4.7-1.6 1-2.7.7-1.1-.4-1.9-.2-1.9.5s1.3 1 3.3.8c4.2-.4 5-3.9 1.2-5.6-2.9-1.3-2.4-3.7.6-2.9 1.1.3 1.9.1 1.9-.4 0-1.7-6-1-6.7.7zM35.5 27.9c-.3.7.3 1.1 1.6 1.1 1.7 0 2 .4 1.6 2.2-.6 2.2-.6 2.2.9.3.8-1 1.3-2.4 1.1-3-.5-1.4-4.4-1.8-5.2-.6z
M10.1 30.3c7.3 5.2 17.4 5.8 24.9 1.6 2.6-1.5 2.9-1.8 1-1.3-1.4.3-5.9.8-10 1.1-7.1.5-8.5.2-17.5-3.2-1.1-.4-.4.4 1.6 1.8z" fill="#000000"/>
</svg>