<svg xmlns="http://www.w3.org/2000/svg" xmlns:xlink="http://www.w3.org/1999/xlink" viewBox="0 0 48 48" version="1.1">
<g id="surface1">
<path style=" stroke:none;fill-rule:nonzero;fill-opacity:1;" d="M 18.820312 2.25 C 15.644531 2.261719 12.882812 3.496094 11.085938 5.058594 C 11.085938 5.0625 11.082031 5.066406 11.078125 5.066406 C 7.769531 8.019531 6.292969 11.714844 6.597656 15.511719 C 4.320312 16.203125 2.78125 17.484375 1.71875 19.019531 C 1.707031 19.035156 1.695312 19.050781 1.6875 19.066406 C 0.0585938 21.707031 0.148438 24.683594 0.75 26.820312 C 0.753906 26.835938 0.757812 26.855469 0.765625 26.867188 C 2.347656 31.546875 6.375 33.40625 9.527344 33.40625 L 20.4375 33.40625 L 20.4375 31.449219 L 9.527344 31.449219 C 7.125 31.449219 3.949219 30.125 2.628906 26.265625 C 2.152344 24.554688 2.101562 22.152344 3.335938 20.117188 C 4.339844 18.6875 5.492188 17.675781 7.789062 17.167969 C 8.296875 17.058594 8.625 16.574219 8.546875 16.066406 C 8.015625 12.617188 9.210938 9.359375 12.371094 6.53125 C 14.546875 4.640625 18.738281 3.179688 23.269531 5.152344 C 26.21875 6.65625 28.410156 9.261719 29.335938 12.289062 C 29.441406 12.636719 29.730469 12.894531 30.085938 12.964844 C 30.441406 13.03125 30.804688 12.894531 31.03125 12.613281 C 31.640625 11.859375 32.390625 11.265625 33.222656 11.050781 C 34.046875 10.835938 35.007812 10.929688 36.300781 11.8125 C 38.136719 13.136719 38.296875 14.703125 38.203125 16.207031 C 38.191406 16.484375 38.292969 16.753906 38.484375 16.953125 C 38.679688 17.148438 38.953125 17.253906 39.230469 17.242188 C 41.117188 17.152344 42.75 18.039062 44.464844 20.328125 C 45.101562 21.421875 45.59375 22.972656 45.609375 24.507812 C 45.625 26.054688 45.195312 27.558594 44.046875 28.75 C 44.035156 28.761719 44.023438 28.777344 44.015625 28.789062 C 42.457031 30.597656 40.976562 31.449219 38.574219 31.449219 L 27.441406 31.449219 L 27.441406 33.40625 L 38.574219 33.40625 C 41.480469 33.40625 43.679688 32.15625 45.46875 30.09375 C 47.011719 28.476562 47.582031 26.417969 47.566406 24.484375 C 47.542969 22.546875 46.960938 20.703125 46.128906 19.296875 C 46.109375 19.265625 46.089844 19.242188 46.074219 19.210938 C 44.371094 16.914062 42.347656 15.621094 40.136719 15.386719 C 40.0625 13.703125 39.496094 11.695312 37.433594 10.214844 C 37.425781 10.210938 37.417969 10.207031 37.414062 10.203125 C 35.761719 9.074219 34.117188 8.800781 32.734375 9.15625 C 31.902344 9.371094 31.222656 9.808594 30.609375 10.320312 C 29.335938 7.382812 27.089844 4.890625 24.125 3.390625 C 24.109375 3.382812 24.09375 3.375 24.074219 3.367188 C 22.757812 2.792969 21.457031 2.460938 20.207031 2.324219 C 19.738281 2.273438 19.277344 2.25 18.820312 2.25 Z M 19.617188 16.890625 L 19.617188 25.335938 L 22.992188 25.335938 L 22.992188 40.847656 L 11.207031 40.847656 L 11.207031 37.667969 L 2.636719 37.667969 L 2.636719 46.109375 L 11.207031 46.109375 L 11.207031 42.804688 L 36.769531 42.804688 L 36.769531 46.109375 L 45.335938 46.109375 L 45.335938 37.667969 L 36.769531 37.667969 L 36.769531 40.847656 L 24.949219 40.847656 L 24.949219 25.335938 L 28.1875 25.335938 L 28.1875 16.890625 Z M 21.570312 18.847656 L 26.230469 18.847656 L 26.230469 23.378906 L 21.570312 23.378906 Z M 4.589844 39.621094 L 9.25 39.621094 L 9.25 44.15625 L 4.589844 44.15625 Z M 38.722656 39.621094 L 43.382812 39.621094 L 43.382812 44.15625 L 38.722656 44.15625 Z M 38.722656 39.621094 "/>
</g>
</svg>
