<svg xmlns="http://www.w3.org/2000/svg" viewBox="2778.3 8405.05 275 275">
  <path d="M 2850.84 8407.05 C 2842.12 8407.05 2834.94 8414.24 2834.94 8422.95 C 2834.94 8429.88 2839.47 8435.82 2845.71 8437.98 L 2845.71 8667.33 L 2819.3 8667.33 L 2819.3 8678.58 L 2882.37 8678.58 L 2882.37 8667.33 L 2856.96 8667.33 L 2856.96 8546.29 L 3027.66 8546.29 L 2987.84 8498.91 L 3027.43 8450.35 L 2856.96 8450.35 L 2856.96 8437.61 C 2862.68 8435.19 2866.74 8429.51 2866.74 8422.95 C 2866.74 8414.24 2859.55 8407.05 2850.84 8407.05 Z M 2850.84 8418.3 C 2853.47 8418.3 2855.49 8420.32 2855.49 8422.95 C 2855.49 8425.59 2853.47 8427.61 2850.84 8427.61 C 2848.2 8427.61 2846.19 8425.59 2846.19 8422.95 C 2846.19 8420.32 2848.2 8418.3 2850.84 8418.3 Z M 2856.96 8461.6 L 3003.75 8461.6 L 2973.24 8499.02 L 3003.52 8535.05 L 2856.96 8535.05 Z" fill="#000000"/>
</svg>