<?xml version="1.0" encoding="UTF-8"?>
<svg xmlns="http://www.w3.org/2000/svg" xmlns:xlink="http://www.w3.org/1999/xlink" width="64px" height="64px" viewBox="0 0 64 64" version="1.1">
<g id="surface1">
<path style=" stroke:none;fill-rule:nonzero;fill-opacity:1;" d="M 31.464844 3.726562 C 28.019531 3.699219 24.6875 4.988281 22.152344 7.320312 C 19.660156 9.554688 18.226562 12.734375 18.214844 16.078125 L 18.214844 23.851562 L 11.140625 23.851562 C 10.839844 23.847656 10.558594 23.964844 10.351562 24.179688 C 10.152344 24.386719 10.039062 24.660156 10.039062 24.945312 L 10.039062 59.578125 C 10.039062 60.1875 10.535156 60.671875 11.140625 60.671875 L 51.660156 60.671875 C 52.265625 60.671875 52.761719 60.1875 52.761719 59.578125 L 52.761719 24.992188 C 52.765625 24.707031 52.652344 24.425781 52.445312 24.226562 C 52.253906 24.011719 51.972656 23.894531 51.6875 23.898438 L 44.625 23.898438 L 44.625 16.234375 C 44.601562 12.90625 43.207031 9.738281 40.773438 7.472656 C 38.265625 5.074219 34.933594 3.726562 31.464844 3.726562 Z M 31.441406 5.914062 C 34.347656 5.894531 37.148438 6.988281 39.265625 8.980469 C 41.285156 10.851562 42.433594 13.480469 42.441406 16.234375 L 42.441406 23.898438 L 20.292969 23.898438 L 20.332031 16.121094 C 20.351562 13.367188 21.535156 10.753906 23.578125 8.914062 C 25.726562 6.960938 28.539062 5.886719 31.445312 5.914062 Z M 12.214844 26.066406 L 50.585938 26.066406 L 50.566406 58.488281 L 12.214844 58.488281 Z M 31.421875 32.945312 C 28.265625 32.894531 25.601562 35.285156 25.308594 38.425781 C 25.011719 41.574219 27.191406 44.414062 30.308594 44.945312 L 30.308594 53.492188 L 32.492188 53.492188 L 32.492188 44.972656 C 35.367188 44.433594 37.453125 41.933594 37.464844 39.011719 C 37.464844 35.667969 34.765625 32.960938 31.421875 32.945312 Z M 31.066406 35.125 C 31.1875 35.125 31.308594 35.125 31.421875 35.132812 C 32.445312 35.140625 33.433594 35.546875 34.160156 36.273438 C 34.878906 37 35.285156 37.988281 35.28125 39.011719 C 35.285156 40.035156 34.886719 41.027344 34.160156 41.746094 C 33.433594 42.472656 32.445312 42.878906 31.421875 42.867188 C 30 42.992188 28.625 42.328125 27.839844 41.140625 C 27.058594 39.953125 26.988281 38.425781 27.660156 37.171875 C 28.332031 35.914062 29.640625 35.132812 31.066406 35.125 Z M 31.066406 35.125 "/>
</g>
</svg>
