<?xml version="1.0" encoding="UTF-8"?>
<svg xmlns="http://www.w3.org/2000/svg" xmlns:xlink="http://www.w3.org/1999/xlink" width="64px" height="64px" viewBox="0 0 64 64" version="1.1">
<g id="surface1">
<path style=" stroke:none;fill-rule:nonzero;fill-opacity:1;" d="M 25.472656 12.867188 C 25.296875 12.867188 25.113281 12.867188 24.941406 12.875 C 20.703125 12.980469 17.199219 14.792969 14.316406 18.046875 C 14.308594 18.054688 14.300781 18.0625 14.296875 18.066406 C 11.285156 21.652344 10.226562 25.390625 10.503906 29.292969 C 6.804688 30.375 4.554688 33.160156 3.394531 35.8125 C 3.375 35.847656 3.363281 35.886719 3.347656 35.925781 C 2.019531 40.050781 3.160156 44.289062 4.964844 46.875 C 4.980469 46.894531 4.992188 46.914062 5.003906 46.929688 C 7.207031 49.75 10.535156 51.316406 13.933594 51.316406 L 49.988281 51.316406 C 53.289062 51.316406 56.152344 50.101562 58.503906 47.554688 C 59.957031 46.167969 60.734375 44.046875 61.027344 41.800781 C 61.332031 39.550781 61.128906 37.152344 60.179688 35.179688 C 60.167969 35.152344 60.152344 35.132812 60.140625 35.113281 C 58.503906 32.203125 55.769531 29.5625 51.914062 29.027344 C 51.851562 26.265625 50.359375 23.671875 48.417969 22.292969 C 48.382812 22.265625 48.351562 22.246094 48.308594 22.226562 C 46.242188 21.066406 44.273438 20.929688 42.679688 21.445312 C 41.699219 21.761719 40.914062 22.292969 40.199219 22.871094 C 38.175781 18.417969 34.667969 14.597656 29.441406 13.351562 C 29.441406 13.34375 29.433594 13.34375 29.425781 13.34375 C 28.046875 13.035156 26.726562 12.878906 25.472656 12.867188 Z M 24.988281 15.253906 C 26.179688 15.238281 27.472656 15.394531 28.886719 15.710938 C 33.796875 16.890625 37.011719 20.6875 38.664062 25.257812 C 38.804688 25.652344 39.140625 25.945312 39.550781 26.03125 C 39.964844 26.117188 40.386719 25.992188 40.675781 25.6875 C 41.503906 24.824219 42.421875 24.070312 43.417969 23.753906 C 44.394531 23.4375 45.488281 23.457031 47.042969 24.304688 C 48.371094 25.285156 49.8125 27.9375 49.542969 29.863281 C 49.488281 30.207031 49.597656 30.558594 49.820312 30.820312 C 50.046875 31.082031 50.378906 31.238281 50.722656 31.246094 C 54.175781 31.292969 56.429688 33.496094 57.996094 36.257812 C 58.652344 37.632812 58.875 39.632812 58.625 41.484375 C 58.382812 43.351562 57.640625 45.035156 56.824219 45.808594 C 56.796875 45.832031 56.777344 45.851562 56.757812 45.871094 C 54.769531 48.046875 52.769531 48.890625 49.988281 48.890625 L 13.933594 48.890625 C 11.289062 48.890625 8.683594 47.667969 6.9375 45.460938 C 5.613281 43.539062 4.628906 39.929688 5.652344 36.714844 C 6.730469 34.277344 8.554688 31.945312 11.957031 31.332031 C 12.589844 31.21875 13.027344 30.625 12.941406 29.984375 C 12.457031 26.261719 13.230469 23.105469 16.140625 19.644531 C 18.703125 16.761719 21.402344 15.273438 24.988281 15.253906 Z M 30.699219 25.984375 C 29.304688 25.984375 28.113281 26.71875 27.21875 27.632812 C 26.328125 28.550781 25.652344 29.683594 25.652344 30.988281 L 25.652344 32.464844 L 24.03125 32.464844 C 23.707031 32.464844 23.402344 32.59375 23.175781 32.820312 C 22.945312 33.050781 22.816406 33.355469 22.816406 33.675781 L 22.816406 42.132812 C 22.816406 42.457031 22.945312 42.765625 23.175781 42.988281 C 23.402344 43.21875 23.707031 43.34375 24.03125 43.34375 L 37.019531 43.34375 C 37.34375 43.34375 37.652344 43.21875 37.882812 42.988281 C 38.105469 42.765625 38.230469 42.457031 38.230469 42.132812 L 38.230469 33.675781 C 38.230469 33.355469 38.105469 33.050781 37.882812 32.820312 C 37.652344 32.59375 37.34375 32.464844 37.019531 32.464844 L 35.476562 32.464844 L 35.476562 30.988281 C 35.476562 29.648438 34.808594 28.484375 33.953125 27.585938 C 33.089844 26.683594 32.007812 25.984375 30.699219 25.984375 Z M 30.699219 28.410156 C 30.976562 28.410156 31.667969 28.707031 32.203125 29.257812 C 32.726562 29.808594 33.050781 30.542969 33.050781 30.988281 L 33.050781 32.464844 L 28.078125 32.464844 L 28.078125 30.988281 C 28.078125 30.660156 28.394531 29.898438 28.953125 29.324219 C 29.515625 28.753906 30.242188 28.410156 30.699219 28.410156 Z M 25.242188 34.890625 L 35.804688 34.890625 L 35.804688 40.917969 L 25.242188 40.917969 Z M 25.242188 34.890625 "/>
</g>
</svg>
